<svg width="16" height="16" viewBox="0 0 16 16" fill="none" xmlns="http://www.w3.org/2000/svg">
<g clip-path="url(#clip0_319_24)">
<path d="M8 12.25C10.3472 12.25 12.25 10.3472 12.25 8C12.25 5.65279 10.3472 3.75 8 3.75C5.65279 3.75 3.75 5.65279 3.75 8C3.75 10.3472 5.65279 12.25 8 12.25Z" fill="white"/>
<path d="M8 2.75C8.13261 2.75 8.25979 2.69732 8.35355 2.60355C8.44732 2.50979 8.5 2.38261 8.5 2.25V1C8.5 0.867392 8.44732 0.740215 8.35355 0.646447C8.25979 0.552678 8.13261 0.5 8 0.5C7.86739 0.5 7.74021 0.552678 7.64645 0.646447C7.55268 0.740215 7.5 0.867392 7.5 1V2.25C7.5 2.38261 7.55268 2.50979 7.64645 2.60355C7.74021 2.69732 7.86739 2.75 8 2.75Z" fill="white"/>
<path d="M3.58137 4.2875C3.67589 4.3795 3.80258 4.43099 3.93449 4.43099C4.0664 4.43099 4.1931 4.3795 4.28762 4.2875C4.38112 4.19376 4.43364 4.06677 4.43364 3.93437C4.43364 3.80197 4.38112 3.67498 4.28762 3.58125L3.40637 2.69375C3.36154 2.63912 3.30577 2.59449 3.24265 2.56272C3.17953 2.53095 3.11045 2.51274 3.03987 2.50928C2.96929 2.50581 2.89877 2.51716 2.83284 2.54259C2.76691 2.56802 2.70703 2.60698 2.65707 2.65694C2.6071 2.70691 2.56815 2.76679 2.54271 2.83272C2.51728 2.89865 2.50593 2.96917 2.5094 3.03975C2.51286 3.11033 2.53107 3.1794 2.56284 3.24252C2.59461 3.30564 2.63924 3.36141 2.69387 3.40625L3.58137 4.2875Z" fill="white"/>
<path d="M2.75 8C2.75 7.86739 2.69732 7.74021 2.60355 7.64645C2.50979 7.55268 2.38261 7.5 2.25 7.5H1C0.867392 7.5 0.740215 7.55268 0.646447 7.64645C0.552678 7.74021 0.5 7.86739 0.5 8C0.5 8.13261 0.552678 8.25979 0.646447 8.35355C0.740215 8.44732 0.867392 8.5 1 8.5H2.25C2.38261 8.5 2.50979 8.44732 2.60355 8.35355C2.69732 8.25979 2.75 8.13261 2.75 8Z" fill="white"/>
<path d="M3.58094 11.7125L2.69344 12.5938C2.59955 12.6886 2.54688 12.8166 2.54688 12.95C2.54688 13.0834 2.59955 13.2115 2.69344 13.3063C2.7901 13.3969 2.91716 13.4482 3.04969 13.45C3.18246 13.4495 3.30996 13.398 3.40594 13.3063L4.28719 12.4188C4.37337 12.3237 4.41967 12.199 4.41651 12.0707C4.41335 11.9424 4.36097 11.8202 4.27022 11.7295C4.17946 11.6387 4.05728 11.5863 3.92897 11.5832C3.80066 11.58 3.67605 11.6263 3.58094 11.7125Z" fill="white"/>
<path d="M8 13.25C7.86739 13.25 7.74021 13.3027 7.64645 13.3964C7.55268 13.4902 7.5 13.6174 7.5 13.75V15C7.5 15.1326 7.55268 15.2598 7.64645 15.3536C7.74021 15.4473 7.86739 15.5 8 15.5C8.13261 15.5 8.25979 15.4473 8.35355 15.3536C8.44732 15.2598 8.5 15.1326 8.5 15V13.75C8.5 13.6174 8.44732 13.4902 8.35355 13.3964C8.25979 13.3027 8.13261 13.25 8 13.25Z" fill="white"/>
<path d="M12.4187 11.7125C12.3236 11.6263 12.199 11.58 12.0707 11.5832C11.9424 11.5863 11.8202 11.6387 11.7295 11.7295C11.6387 11.8202 11.5863 11.9424 11.5832 12.0707C11.58 12.199 11.6263 12.3237 11.7125 12.4188L12.5937 13.3063C12.6897 13.398 12.8172 13.4495 12.95 13.45C13.0825 13.4482 13.2096 13.3969 13.3062 13.3063C13.4001 13.2115 13.4528 13.0834 13.4528 12.95C13.4528 12.8166 13.4001 12.6886 13.3062 12.5938L12.4187 11.7125Z" fill="white"/>
<path d="M15 7.5H13.75C13.6174 7.5 13.4902 7.55268 13.3964 7.64645C13.3027 7.74021 13.25 7.86739 13.25 8C13.25 8.13261 13.3027 8.25979 13.3964 8.35355C13.4902 8.44732 13.6174 8.5 13.75 8.5H15C15.1326 8.5 15.2598 8.44732 15.3536 8.35355C15.4473 8.25979 15.5 8.13261 15.5 8C15.5 7.86739 15.4473 7.74021 15.3536 7.64645C15.2598 7.55268 15.1326 7.5 15 7.5Z" fill="white"/>
<path d="M12.0687 4.43125C12.1337 4.43182 12.1981 4.4194 12.2582 4.39472C12.3183 4.37003 12.3729 4.33358 12.4187 4.2875L13.3062 3.40625C13.3859 3.3091 13.4267 3.18577 13.4205 3.06024C13.4143 2.93472 13.3617 2.81597 13.2728 2.7271C13.184 2.63824 13.0652 2.5856 12.9397 2.57944C12.8142 2.57327 12.6908 2.61402 12.5937 2.69375L11.7124 3.58125C11.6189 3.67498 11.5664 3.80198 11.5664 3.93437C11.5664 4.06677 11.6189 4.19377 11.7124 4.2875C11.759 4.33434 11.8146 4.37123 11.8758 4.39594C11.937 4.42066 12.0027 4.43267 12.0687 4.43125Z" fill="white"/>
</g>
<defs>
<clipPath id="clip0_319_24">
<rect width="16" height="16" fill="white"/>
</clipPath>
</defs>
</svg>
